<svg viewBox="0 0 1280 720" fill="none" stroke-linecap="square" stroke-miterlimit="10" xmlns="http://www.w3.org/2000/svg"><clipPath id="a"><path d="M0 0h1280v720H0V0z"/></clipPath><g clip-path="url(#a)"><path fill="#fff" d="M0 0h1280v720H0z" fill-rule="evenodd"/><path shape-rendering="crispEdges" fill="#fff" d="M304 166h53v58h-53v-58z"/><path shape-rendering="crispEdges" fill="#c1f9c1" d="M357 166h54v58h-54v-58z"/><path shape-rendering="crispEdges" fill="#fff" d="M411 166h53v58h-53v-58zM464 166h54v58h-54v-58zM518 166h54v58h-54v-58zM572 166h53v58h-53v-58z"/><path stroke="#595959" stroke-linecap="butt" d="M196 165v60M250 165v60M304 165v60M357 165v60M411 165v60M464 165v60M518 165v60M572 165v60M625 165v60M196 166h430M196 224h430"/><path shape-rendering="crispEdges" fill="#fff" d="M328 510h53v58h-53v-58z"/><path shape-rendering="crispEdges" fill="#c1f9c1" d="M381 510h54v58h-54v-58z"/><path shape-rendering="crispEdges" fill="#fff" d="M435 510h53v58h-53v-58zM488 510h54v58h-54v-58z"/><path stroke="#595959" stroke-linecap="butt" d="M220 510v59M274 510v59M328 510v59M381 510v59M435 510v59M488 510v59M542 510v59M220 510h322M220 568h322"/><path shape-rendering="crispEdges" fill="#fff" d="M892 424h56v70h-56v-70z"/><path shape-rendering="crispEdges" fill="#c1f9c1" d="M948 424h112v70H948v-70z"/><path shape-rendering="crispEdges" fill="#fff" d="M1060 424h56v70h-56v-70zM1116 424h57v70h-57v-70zM1173 424h56v70h-56v-70z"/><path stroke="#595959" stroke-linecap="butt" d="M779 423v72M835 423v72M892 423v72M948 423v72M1060 423v72M1116 423v72M1173 423v72M1229 423v72M778 424h452M778 494h452"/><path fill="#000" d="M995 465h-11l-2 7h-4l10-27h3l10 27h-3l-3-7zm-10-3h9l-4-12-5 12zm26-18h-3v31h3v3h-7v-37h7v3zm7 28h-3v-20h3v20zm-4-25 1-2h3v3l-2 1-1-1-1-1zm7-6h7v37h-7v-3h3v-31h-3v-3z"/><path fill="none" d="M70 156h118v71H70z"/><path fill="#000" d="M110 197H99l-3 7h-3l10-27h3l10 27h-4l-2-7zm-10-3h9l-5-12-4 12zm35-18h-3v31h3v3h-7v-36h7v2zm6 8v3q3-3 6-3 7 0 7 7v13h-4v-13l-1-3-3-1-3 1-2 2v14h-3v-20h3zm15-10h7v36h-7v-3h4v-31h-4v-2z"/><path fill="none" d="M51 507h145v71H51z"/><path fill="#000" d="M89 546q0 4-3 7-3 2-7 2-5 0-8-3-2-4-2-9v-3l1-6q1-3 4-5l5-1q5 0 7 2 3 3 3 7h-3l-2-5-5-1q-3 0-5 2-2 3-2 7v3q0 4 2 7 2 2 5 2l4-1q2-1 3-5h3zm21-19h-4v31h4v2h-7v-36h7v3zm8 19-2 2v7h-4v-28h4v17l2-3 6-6h4l-8 8 9 12h-4l-7-9zm23-6h7v4h-7v8h-3v-8h-8v-4h8v-7h3v7zm22 15h-3v-23l-7 3v-3l10-4v27zm8-31h7v36h-7v-2h4v-31h-4v-3z"/><path fill="none" d="M309 323h204v71H309z"/><path fill="#000" d="M402 364h-11l-2 7h-4l10-26h3l10 26h-3l-3-7zm-10-3h9l-4-12-5 12zm26-17h-3v30h3v3h-7v-36h7v3zm7 27h-3v-20h3v20zm-4-25 1-1 1-1 2 1v3h-3l-1-2zm7-5h7v36h-7v-3h3v-30h-3v-3z"/><path fill="none" d="M350 47h62v71h-62z"/><path fill="#000" d="M383 95h-3V75h3v20zm-4-25 1-2h3v3l-2 1-1-1-1-1z"/><path fill="none" d="m384 224 34 96"/><path stroke="#000" stroke-width="2" stroke-linejoin="round" stroke-linecap="butt" d="m384 224 30 85"/><path fill="#000" stroke="#000" stroke-width="2" stroke-linecap="butt" d="m411 310 6 7v-9z" fill-rule="evenodd"/><path fill="none" d="m382 106-1 57"/><path stroke="#000" stroke-width="2" stroke-linejoin="round" stroke-linecap="butt" d="m382 106-1 45"/><path fill="#000" stroke="#000" stroke-width="2" stroke-linecap="butt" d="m378 151 3 9 3-9z" fill-rule="evenodd"/><path fill="none" d="m411 394-3 94"/><path stroke="#000" stroke-width="2" stroke-linejoin="round" stroke-linecap="butt" d="m411 394-2 82"/><path fill="#000" stroke="#000" stroke-width="2" stroke-linecap="butt" d="m405 476 3 9 4-9z" fill-rule="evenodd"/><path fill="none" d="M872 149h285v71H872z"/><path fill="#000" d="M968 189q0 4-3 6t-7 2q-5 0-7-3-3-3-3-9v-3l1-6q1-3 4-4 2-2 5-2 5 0 7 3 3 2 3 6h-3l-2-5-5-1q-3 0-5 3-2 2-2 7v2q0 4 2 7t5 3q3 0 5-2l2-4h3zm11-20h-3v31h3v3h-6v-36h6v2zm19 21h-12l-2 7h-4l10-26h3l11 26h-4l-2-7zm-11-3h9l-4-12-5 12zm27-18h-4v31h4v3h-7v-36h7v2zm6 28h-3v-20h3v20zm-3-25v-1l2-1 1 1 1 1-1 1-1 1-2-1v-1zm6-5h7v36h-7v-3h4v-31h-4v-2zm10 0h7v36h-7v-3h4v-31h-4v-2zm29 20h-9v-3h9v3zm14 10h-4v-22l-6 2v-3l9-4h1v27z"/><path fill="none" d="m425 480 520-263"/><path stroke="#000" stroke-width="2" stroke-linejoin="round" stroke-linecap="butt" d="m425 480 509-257"/><path fill="#000" stroke="#000" stroke-width="2" stroke-linecap="butt" d="m935 226 7-8-10 2z" fill-rule="evenodd"/><path fill="none" d="M519 602h342v71H519z"/><path fill="#000" d="M554 642q-1 4-4 6-2 2-6 2-5 0-8-3t-3-9v-3l1-6 4-4 6-2q4 0 7 3l3 6h-4q0-3-2-5l-4-1q-4 0-5 3-2 2-2 7v2l1 7q2 3 6 3l4-2q2-1 2-4h4zm11-20h-4v31h4v3h-7v-36h7v2zm18 21h-11l-3 7h-3l10-26h3l10 26h-4l-2-7zm-10-3h9l-5-12-4 12zm26-18h-3v31h3v3h-7v-36h7v2zm7 28h-4v-20h4v20zm-4-25v-1l2-1 1 1 1 1-1 1-1 1-2-1v-1zm7-5h7v36h-7v-3h3v-31h-3v-2zm10 0h6v36h-6v-3h3v-31h-3v-2zm36 15h-15v-3h15v3zm0 8h-15v-3h15v3zm35-1-3 6q-3 2-7 2-5 0-8-3t-3-9v-3l2-6 3-4 6-2q4 0 7 3l3 6h-4q0-3-2-5l-4-1q-3 0-5 3-2 2-2 7v2q0 4 2 7t5 3q3 0 4-2 2-1 2-4h4zm11-20h-3v31h3v3h-7v-36h7v2zm18 21h-11l-2 7h-4l10-26h3l10 26h-3l-3-7zm-10-3h9l-4-12-5 12zm26-18h-3v31h3v3h-7v-36h7v2zm7 28h-3v-20h3v20zm-4-25 1-1 1-1 2 1v2l-2 1-1-1-1-1zm7-5h7v36h-7v-3h3v-31h-3v-2zm10 0h7v36h-7v-3h3v-31h-3v-2zm28 20h-9v-3h9v3zm24 10h-4v-22l-7 2v-3l10-4h1v27z"/><path fill="none" d="m1004 247 1 150"/><path stroke="#000" stroke-width="2" stroke-linejoin="round" stroke-linecap="butt" d="m1004 247 1 138"/><path fill="#000" stroke="#000" stroke-width="2" stroke-linecap="butt" d="m1002 385 3 9 3-9z" fill-rule="evenodd"/><path fill="none" d="M676 424h95v71h-95z"/><path fill="#000" d="M695 472v-27h8q5 0 7 2t2 5l-1 4-3 2q2 0 3 2l2 4q0 4-3 6-2 2-6 2h-9zm3-13v10h6l4-1 1-4q0-5-5-5h-6zm0-2h5q3 0 4-2l1-3-1-3-4-1h-5v9zm26-13h-3v31h3v3h-7v-37h7v3zm6 8v3q3-3 6-3 7 0 7 7v13h-4v-13l-1-3-3-1h-3l-1 3v14h-4v-20h3zm15-11h7v37h-7v-3h4v-31h-4v-3z"/><path fill="none" d="m415 576 104 62"/><path stroke="#000" stroke-width="2" stroke-linejoin="round" stroke-linecap="butt" d="m415 576 94 56"/><path fill="#000" stroke="#000" stroke-width="2" stroke-linecap="butt" d="m507 634 9 2-6-7z" fill-rule="evenodd"/><path fill="none" d="M250 252h134v64H250z"/><path fill="#000" d="m275 285-6-3q-2-2-2-5t2-5q3-2 7-2l5 1 3 3 1 4h-3q0-3-2-4l-4-1-4 1q-2 1-2 3t2 3l4 2 6 2 2 2 1 4q0 3-2 5-3 2-7 2l-5-1-4-3-1-4h3l2 4 5 1 4-1q2-1 2-3t-2-3l-5-2zm19-13v5h3v3h-3v14h4v3h-3l-3-1-2-4v-12h-3v-3h3v-5h4zm16 25q-4 0-7-3-2-2-2-7l1-6 3-3 4-1q4 0 6 2 2 3 2 7v2h-13q0 3 2 4 1 2 4 2h3l2-2 2 1q-2 4-7 4zm-1-18q-2 0-3 2-2 1-2 4h10q0-3-2-4-1-2-3-2zm29 8q0 5-2 7-2 3-6 3-3 0-5-2v9h-4v-27h3v2q2-2 6-2t6 2q2 3 2 8zm-4 0-1-6q-1-2-4-2t-4 3v10q1 2 4 2t4-2l1-5zm28 10h-3v-23l-7 3v-3l10-4v27z"/><path fill="none" d="M263 401h134v65H263z"/><path fill="#000" d="m288 434-6-3q-2-2-2-5t2-5q3-2 7-2l5 1 3 3 1 4h-3l-2-4-4-1-4 1q-2 1-2 3t2 3l4 2 6 2 2 3 1 3q0 4-2 5-3 2-7 2l-5-1-4-3-1-4h3q0 3 2 4 2 2 5 2t4-2q2-1 2-3t-2-3l-5-2zm19-12v4h3v3h-3v14l2 1 2-1v3h-3l-3-1q-2-1-2-4v-12h-3v-3h3v-4h4zm16 24q-4 0-7-2-2-3-2-7v-1l1-5 3-4 4-1q4 0 6 2 2 3 2 8v1h-13q0 3 2 5 1 2 4 2l3-1 2-2 2 2q-2 3-7 3zm-1-17-3 1-2 4h10l-2-4-3-1zm29 7q0 5-2 8-2 2-6 2-3 0-5-2v10h-4v-28h3v3q2-3 6-3t6 3q2 2 2 7zm-4 0-1-5q-1-2-4-2t-4 3v9q1 3 4 3t4-2l1-6zm34 10h-17v-2l9-11 3-3 1-3-2-4-3-1-4 1-1 4h-4q0-3 3-6 2-2 6-2t6 2q2 2 2 5 0 4-5 10l-7 7h13v3z"/><path fill="none" d="m570 338 118-63 31 56-118 64z"/><path fill="#000" d="m608 355-7 1-4-3q-2-3 0-6 1-3 4-5l5-1q3-1 5 1l3 3-4 1q-1-2-3-2h-4l-3 3v4l3 2 5-1h5l4 1 2 2q2 3 1 6l-5 5-5 1h-5l-3-3 3-2q1 2 3 2 3 1 5-1 3-1 3-3v-3l-2-2h-6zm10-20 3 5 3-2 1 2-3 2 6 11 1 1h2l1-1 1 2-2 2h-3q-2 0-3-3l-6-10-3 1-1-2 3-2-3-4 3-2zm26 15q-3 2-7 1-3-1-5-5l-1-1-1-5 1-5 3-3q3-2 6-1 4 2 6 6v1l-11 6 3 4q3 1 5-1l2-2 1-2h3q-1 4-5 7zm-9-16-2 3v5l9-5-3-3h-4zm29-6 2 7q-1 3-4 5t-6 1l5 8-3 2-13-24 2-2 2 2q0-3 3-5 4-2 7 0 3 1 5 5v1zm-3 1-4-4h-4q-3 2-3 5l5 8q2 2 5 0 2-1 2-3 1-3-1-6zm17-15 2-1q2-1 2-3v-3q-2-4-6-2l-3 3 1 3-3 2q-2-3-1-6t5-5l6-1 4 4 1 4q0 2-2 3l4 1q2 0 3 3 2 3 1 6t-5 4q-3 2-6 1-3 0-4-3l3-2 2 3 4-1 3-3-1-4q-1-2-3-2-2-1-4 1l-2 1-1-3z"/><path fill="none" d="M1016 307h135v64h-135z"/><path fill="#000" d="M1042 340q-5-1-7-3t-2-5q0-3 3-5 2-2 6-2l5 1 3 3 2 4h-4l-1-4-5-1-4 1-1 3 1 3 5 2 5 2 3 2 1 4q0 3-3 5-2 2-7 2l-5-1-3-3-2-4h4l2 4 4 1 5-1 1-3-1-3-5-2zm18-13v5h4v3h-4v12l1 2h3v3h-3l-3-1-1-4v-12h-4v-3h4v-5h3zm16 25q-4 0-7-3-2-2-2-7l1-5 3-4 5-1q3 0 5 2 3 3 3 7v2h-14q0 3 2 5l4 1h3l2-2 2 1q-2 4-7 4zm0-18q-3 0-4 2l-2 4h10l-1-4q-1-2-3-2zm28 8q0 5-2 7-2 3-5 3-4 0-6-2v9h-3v-27h3v2q2-2 6-2 3 0 5 2 2 3 2 8zm-3 0q0-4-2-6-1-2-3-2-4 0-5 3v10q1 2 5 2 2 0 3-2 2-2 2-5zm31 1h3v3h-3v6h-4v-6h-12v-2l12-19h4v18zm-12 0h8v-13l-8 13z"/><path fill="none" d="M314 600h134v65H314z"/><path fill="#000" d="m339 633-7-3q-2-2-2-5t3-5q2-2 6-2l5 1 4 3 1 4h-4l-1-4-5-1-4 1-1 3 1 3 5 2 5 2 3 2 1 4q0 3-3 5-2 2-6 2l-5-1-4-3-1-4h3l2 4 5 1 4-1 1-3-1-3-5-2zm18-13v5h4v3h-4v12l1 2h3v3h-2l-4-1-1-4v-12h-4v-3h4v-5h3zm16 25q-4 0-6-3-3-2-3-7l1-5 3-4 5-1q4 0 6 2 2 3 2 7v2h-13l1 5 4 1h3l3-2 2 1q-3 4-8 4zm0-18-4 2-1 4h10l-2-4q-1-2-3-2zm28 8q0 5-2 7-2 3-5 3-4 0-6-2v9h-3v-27h3v2q2-2 6-2 3 0 5 2 2 3 2 8zm-3 0-1-6-4-2q-3 0-5 3v10q2 2 5 2l4-2 1-5zm18-4 2-13h13v3h-11v8l4-2q4 0 6 3 2 2 2 6t-2 7q-3 2-7 2-3 0-5-2l-3-5h3l2 3 3 1 4-1q2-2 2-5l-2-4q-1-2-4-2l-3 1-1 1-3-1z"/></g></svg>