<svg xmlns="http://www.w3.org/2000/svg" width="1280" viewBox="0 0 960 540" height="720" version="1.0"><defs><clipPath id="a"><path d="M1 0h958v539H1Zm0 0"/></clipPath><clipPath id="b"><path d="M84 448h23v27H84Zm0 0"/></clipPath><clipPath id="c"><path d="M84 448h23v28H84Zm0 0"/></clipPath><clipPath id="d"><path d="M105 473h9v9h-9Zm0 0"/></clipPath><clipPath id="e"><path d="M78 474h33v11H78Zm0 0"/></clipPath></defs><g clip-path="url(#a)" fill="#FFF"><path d="M1 0h958v539H1Zm0 0"/><path d="M1 0h958v539H1Zm0 0"/><path d="M1 0h958v539H1Zm0 0"/></g><path stroke-linecap="round" transform="matrix(0 6.7564 -6.5087 0 305 182)" fill="none" d="M1 0h12" stroke="#545454"/><path stroke-linecap="round" transform="matrix(0 6.7564 -6.5087 0 377 182)" fill="none" d="M1 0h12" stroke="#545454"/><path stroke-linecap="round" transform="matrix(0 6.7564 -6.5087 0 452 182)" fill="none" d="M1 0h12" stroke="#545454"/><path stroke-linecap="round" transform="matrix(0 6.7564 -6.5087 0 530 182)" fill="none" d="M1 0h12" stroke="#545454"/><path stroke-linecap="round" transform="matrix(0 6.7564 -6.5087 0 606 182)" fill="none" d="M1 0h12" stroke="#545454"/><path stroke-linecap="round" transform="matrix(0 6.7564 -6.5087 0 679 182)" fill="none" d="M1 0h12" stroke="#545454"/><path stroke-linecap="round" transform="matrix(0 6.7564 -6.5087 0 756 182)" fill="none" d="M1 0h12" stroke="#545454"/><path stroke-linecap="round" transform="matrix(0 6.7564 -6.5087 0 830 182)" fill="none" d="M1 0h12" stroke="#545454"/><path stroke-linecap="round" transform="matrix(6.7329 0 0 6.73752 303 184)" fill="none" d="M1 0h77" stroke="#545454"/><path stroke-linecap="round" transform="matrix(6.7329 0 0 6.73752 306 272)" fill="none" d="M0 0h78" stroke="#545454"/><path d="M473 430h-10v8h11v2h-14v-22h14v2h-11v7h10ZM477 432c0-3 0-5 2-7l5-2 4 2v-2h3v24h-3v-8l-4 2c-2 0-4-1-5-3-2-1-2-3-2-6Zm3 0 1 5 3 1 4-2v-8c-1-2-2-3-4-3l-3 2-1 5ZM506 439l-5 2-4-2-1-5v-11h3v11c0 3 1 4 3 4l4-2v-13h3v17h-3ZM516 440h-2v-17h2Zm-3-21 1-1 1-1 1 1 1 1-1 1-1 1-1-1-1-1ZM524 440h-3v-24h3ZM532 440h-3v-17h3Zm-3-21v-1l2-1 1 1v2l-1 1-2-1v-1ZM551 432l-2 6c-1 2-3 3-5 3s-3-1-5-3v2h-2v-24h2v9l5-2 5 2 2 7Zm-3 0-1-5-3-1c-2 0-4 0-5 2v8l5 2 3-1 1-5ZM563 426h-2l-4 2v12h-3v-17h3v2l4-2h2ZM568 440h-2v-17h2Zm-3-21 1-1 1-1 1 1 1 1-1 1-1 1-1-1-1-1ZM583 439l-4 2-5-2-1-5v-11h3v11c0 3 1 4 3 4l4-2v-13h3v17h-2ZM593 423v2l5-2c3 0 4 1 5 3l2-2 4-1c3 0 5 2 5 6v11h-3v-14h-3l-3 1-1 2v11h-3v-11c0-2-1-3-4-3-1 0-3 0-3 2v12h-3v-17ZM630 440h-3v-22h3ZM638 423v3c1-2 3-3 5-3 4 0 5 2 5 6v11h-2v-11l-1-3h-5l-2 2v12h-3v-17ZM652 432l2-7 5-2 4 2v-9h3v24h-2v-2c-2 2-3 3-5 3s-4-1-5-3l-2-6Zm3 0 1 5 3 1 4-2v-8c0-2-2-2-3-2l-4 1-1 5ZM678 441l-6-3-2-6 1-5 3-3 3-1 6 2 1 6v2h-11l1 4 4 1h3l1-2 2 1c-1 3-3 4-6 4Zm-1-16-2 2-2 3h9l-2-3c0-1-1-2-3-2ZM693 430l4-7h4l-6 9 6 8h-4l-4-6-3 6h-4l6-8-6-9h4ZM348 154c0 3 0 5-2 7-1 2-3 3-5 3s-4-1-5-3c-2-1-2-4-2-7v-4c0-3 0-6 2-7 1-2 2-3 5-3 2 0 4 1 5 3l2 7Zm-3-4-1-6-3-1-3 1-1 5v5l1 5c0 2 2 2 3 2l3-1 1-6ZM226 225l6-9h3l-7 11 7 12h-3l-6-9-5 9h-4l7-12-7-11h4ZM252 215h-3v26h3v3h-6v-31h6ZM261 213h5v31h-5v-3h3v-26h-3ZM286 341l-6-3-1-4c0-1 0-3 2-4l5-2 4 1 3 3 1 3h-3l-1-3-4-1-3 1-1 2 1 3 4 1 4 2 3 2v3c0 2 0 4-2 5l-6 2-4-1-3-3-1-3h3l1 3 4 1 4-1 1-2-1-3-4-2ZM308 350l-5 2-4-2-1-5v-11h3v11c0 3 1 4 3 4l4-2v-13h3v17h-3ZM318 334v2l5-2c2 0 4 1 5 3l2-2 3-1c4 0 6 2 6 6v11h-3v-11l-1-3h-5l-1 3v11h-3v-11c0-2-2-3-4-3s-3 0-4 2v12h-3v-17ZM364 339h-13v-3h13Zm0 6h-13v-2h13ZM378 340l1-11h11v2h-9v6l3-1 5 2c2 2 2 4 2 6l-2 6-5 2-5-2-2-5h3l1 3 3 1 3-1 1-4-1-4-3-1-3 1h-1ZM411 339h6v3h-6v7h-3v-7h-6v-3h6v-7h3ZM443 351h-15v-2l8-9 2-3 1-2-1-3-3-1-3 1-1 3h-3c0-2 0-4 2-5l5-2 5 2 2 4c0 3-1 5-4 8l-6 7h11ZM463 339h6v3h-6v7h-3v-7h-7v-3h7v-7h3ZM495 351h-15v-2l8-9 2-3 1-2-1-3-3-1-3 1-2 3h-2c0-2 0-4 2-5l5-2 5 2 2 4c0 3-2 5-4 8l-6 7h11ZM519 339h-13v-3h13Zm0 6h-13v-2h13ZM542 341l-2 2-3 1a6 6 0 0 1-5-4l-1-4 1-4a6 6 0 0 1 6-4c2 0 4 1 5 3 2 1 2 4 2 7l-2 10c-2 2-5 3-8 3h-1v-2h1l5-2c2-1 2-3 2-6Zm-4 0 3-1 1-2v-1l-1-5-3-1-3 1-1 4 1 4 3 1ZM335 230l1-12h12v3h-9l-1 6 4-1 5 2 2 6-2 5c-2 2-3 2-6 2l-4-1c-2-1-2-3-3-5h3l2 3 2 1 4-1 1-4-1-4-4-1-3 1ZM425 241h-15v-2l8-9 2-3 1-3-1-2-3-2-3 2-1 3h-3c0-2 0-4 2-5l5-2 5 2 2 4c0 2-1 5-4 8l-6 7h11ZM496 241h-15v-2l8-9 2-3 1-3-1-2-3-2-4 2-1 3h-3l2-5 6-2 5 2 2 4c0 2-2 5-5 8l-6 7h12ZM570 233h4v3h-4v5h-2v-5h-11v-2l10-16h3Zm-10 0h8v-11l-1 1ZM641 228h2l3-1 1-3c0-2-1-4-4-4l-3 1-1 3h-3l2-4 5-2 5 2c2 1 2 2 2 4l-1 3-2 2 2 2 1 4c0 2 0 3-2 5l-5 1-5-1-2-5h3l1 3 3 1 3-1 2-3c0-2-1-3-2-3l-3-1h-2ZM721 233h3v3h-3v5h-3v-5h-10v-2l10-16h3Zm-10 0h7v-11 1ZM802 241h-14v-2l7-9 3-3 1-3-2-2-2-2-4 2-1 3h-3l2-5 6-2 5 2 1 4c0 2-1 5-4 8l-6 7h11Zm0 0"/><g clip-path="url(#b)"><path fill="#33363A" d="m106 470-2-4v-7c0-3 1-6-2-8-1-2-4-2-7-2-5 0-9 2-10 7l1 1h4l1-1 4-2 2 1 1 3v1h-3l-6 1c-3 1-5 4-5 8l1 2c1 3 3 5 6 5l4-1 4-3 2 3h1l4-3v-1Zm-11-7 3-1v1l-1 5-2 2h-1c-2 0-3-1-3-3 0-3 2-4 4-4Zm0 0"/></g><g clip-path="url(#c)"><path stroke-linecap="round" fill="none" stroke-linejoin="round" d="M106 470s0 0 0 0l-2-4v-7c0-3 1-6-2-8-1-2-4-2-7-2h0c-5 0-9 2-10 7l1 1h4l1-1 4-2h0l2 1 1 3v1h-3l-6 1c-3 1-5 4-5 8l1 2c1 3 3 5 6 5l4-1 4-3 2 3h1l4-3v-1Zm-11-7 3-1v1l-1 5-2 2h-1c-2 0-3-1-3-3 0-3 2-4 4-4Zm0 0" stroke="#33363A" stroke-width=".87201" stroke-miterlimit="10"/></g><path fill="#FFB900" d="M95 481c-4 0-7-1-10-3h-4v-2a471 471 0 0 1-3 1c5 4 10 8 17 8l13-4 1-1 1-1v-1h-3l-12 3Zm0 0"/><path fill="#FFB900" d="M110 478h-3c-4 2-9 5-12 5h-1l-9-2-4-2-2-1c5 3 9 7 16 7l13-4 1-1 1-1v-1ZM110 476l1 1v2l-1 1v1l1 1 1-1 2-5v-1l-1-1h-3v2ZM109 478h-2 3-1ZM85 478l-4-2v2ZM109 474h-1v1h-1l-1 1 1 1h2l1-1v-2h-1Zm0 0"/><g clip-path="url(#d)"><path stroke-linecap="round" fill="none" stroke-linejoin="round" d="M114 476h0v-1h0l-1-1h-2a10 10 0 0 0-2 0h0-1 0v1h0-1l-1 1 1 1a1 1 0 0 0 0 0h2l1-1s0 0 0 0l1 1a1 1 0 0 1 0 0s0 0 0 0v2l-1 1v1s0 0 0 0l1 1h0l1-1 2-5Zm0 0" stroke="#33363A" stroke-width=".87201" stroke-miterlimit="10"/></g><g clip-path="url(#e)"><path stroke-linecap="round" fill="none" stroke-linejoin="round" d="M109 478h-1s0 0 0 0h-1 0s0 0 0 0l-12 3s0 0 0 0c-4 0-7-1-10-3l-4-2h-2v-1l-1 1s0 0 0 0v1c5 4 10 8 17 8 0 0 0 0 0 0l13-4h0l1-1 1-1v-1h-1Zm0 0" stroke="#33363A" stroke-width=".87201" stroke-miterlimit="10"/></g><path d="M420 163h-3v-19l-6 2v-2l8-4h1ZM496 163h-15v-2l8-9 2-3 1-2-1-3-3-1-4 1-1 3h-3l2-5 6-2 5 2 2 4c0 3-2 5-5 8l-6 7h12Zm0 0"/><path d="M564 150h3l2-1 1-2-1-2-2-1-2 1-1 1h-5l1-3 3-2 4-1 5 2c2 1 2 3 2 5v3l-3 2 3 2 1 3-2 5-6 2-6-2-2-5h5l1 2 2 1 2-1 1-2c0-2-1-4-3-4h-3Zm0 0" fill="#059669"/><path d="M649 156h3v2h-3v5h-3v-5h-11v-2l11-15h3Zm-10 0h7v-12l-1 1ZM710 152l1-11h12v2h-9l-1 6 4-1 5 2 1 6-1 6-6 2-5-2-2-5h3l1 3 3 1 3-1 2-4-2-4-3-1-3 1h-1ZM799 141v2h-1l-5 2-2 5 5-2 4 2c2 2 2 4 2 6l-2 5c-1 2-3 3-5 3s-4-1-5-3c-2-2-2-4-2-6v-2l2-9c2-2 5-3 8-3Zm-4 10-3 1-1 2v1l1 4c1 2 2 2 3 2l3-1 1-4-1-4-3-1Zm0 0"/><path transform="matrix(3.74706 .03147 -.03144 3.74294 309 295)" fill="none" d="M3 0h54" stroke="#545454"/><path stroke-linecap="round" transform="matrix(3.74706 .03147 -.03144 3.74294 309 295)" fill="#545454" stroke-linejoin="round" d="M3-2 0 0l3 2Zm0 0" stroke="#545454"/><path stroke-linecap="round" transform="matrix(3.74706 .03147 -.03144 3.74294 532 296)" fill="#545454" stroke-linejoin="round" d="m-2-2 1 2-1 2Zm0 0" stroke="#545454"/><path transform="matrix(3.74687 .03147 -.03143 3.74294 609 295)" fill="none" d="M3 0h54" stroke="#545454"/><path stroke-linecap="round" transform="matrix(3.74687 .03147 -.03143 3.74294 609 295)" fill="#545454" stroke-linejoin="round" d="M2-2 1 0l2 2Zm0 0" stroke="#545454"/><path stroke-linecap="round" transform="matrix(3.74687 .03147 -.03143 3.74294 832 296)" fill="#545454" stroke-linejoin="round" d="m-3-2 3 2-3 2Zm0 0" stroke="#545454"/><path d="m598 341-5-3c-2-1-2-2-2-4l2-4 6-2 4 1 3 3 1 3h-3l-2-3-3-1-4 1-1 2 1 3 4 1 4 2 3 2 1 3c0 2-1 4-3 5l-5 2-5-1-3-3-1-3h3l2 3 4 1 3-1 2-2c0-2-1-2-2-3l-4-2ZM620 350c-1 1-2 2-5 2l-4-2-1-5v-11h3v11c0 3 1 4 3 4l4-2v-13h3v17h-3ZM630 334v2l5-2c3 0 4 1 5 3l2-2 4-1c3 0 5 2 5 6v11h-3v-14h-6l-1 3v11h-3v-11c0-2-1-3-4-3-2 0-3 0-4 2v12h-2v-17ZM677 339h-13v-3h13Zm0 6h-13v-2h13ZM693 338h2l3-1 1-2c0-3-1-4-4-4l-3 1-1 2h-3l2-4 5-2c3 0 4 1 5 2 2 1 2 3 2 5l-1 3-2 2 3 2 1 3-2 5-6 2-5-2-2-5h3l1 3 3 1 4-1 1-3-1-3-4-1h-2ZM723 339h6v3h-6v7h-3v-7h-6v-3h6v-7h3ZM753 344h3v2h-3v5h-3v-5h-11v-2l11-15h3Zm-10 0h7v-12l-1 1ZM775 339h6v3h-6v7h-3v-7h-6v-3h6v-7h3ZM807 351h-15v-2l8-9 3-3v-2l-1-3-3-1-3 1-1 3h-3l2-5 5-2 5 2c2 1 2 2 2 4 0 3-1 5-4 8l-6 7h11ZM832 339h-13v-3h13Zm0 6h-13v-2h13ZM855 341l-2 2-3 1a6 6 0 0 1-6-4l-1-4 1-4a6 6 0 0 1 6-4c3 0 4 1 6 3l2 7c0 5-1 8-3 10s-4 3-8 3h-1v-2h1l6-2 2-6Zm-5 0 3-1 2-2v-1l-2-5-3-1-3 1-1 4 1 4 3 1Zm0 0"/><path transform="matrix(0 3.74644 -3.74307 0 565 293)" fill="none" d="M0 0h27" stroke="#059669"/><path stroke-linecap="round" transform="matrix(0 3.74644 -3.74307 0 565 397)" fill="none" stroke-linejoin="round" d="m-3-2 2 2-2 1" stroke="#059669"/><path fill="#C1F9C1" d="M114 54a59 59 0 1 0 0 118 59 59 0 0 0 0-118"/><path d="M101 113h-8v6h9v2H91v-17h11v2h-9v6h8ZM112 121v-1l-4 1-3-1-1-2c0-2 1-3 2-3l4-1h2v-1l-1-2-2-1-2 1v1h-3l1-2 2-1 2-1 4 1 1 3v6l1 3Zm-3-1 2-1 1-1v-3h-2l-4 2 1 2 2 1ZM125 118l-1-1-2-1-3-1-1-1-1-2 2-3 3-1 4 1 1 3h-2l-1-1-2-1-2 1v2l2 1 3 1 2 1v2l-1 2-4 1h-2l-2-2-1-2h2l1 2 2 1 2-1 1-1ZM134 118l3-9h2l-5 14c-1 2-2 3-4 3h-1v-2h3l1-2v-1l-4-12h2Zm0 0"/></svg>