<svg xmlns="http://www.w3.org/2000/svg" width="1280" viewBox="0 0 960 540" height="720" version="1.0"><defs><clipPath id="a"><path d="M1 0h958v539H1Zm0 0"/></clipPath><clipPath id="b"><path d="M61 450h23v27H61Zm0 0"/></clipPath><clipPath id="c"><path d="M87 475h4v8h-4Zm0 0"/></clipPath><clipPath id="d"><path d="M82 474h9v10h-9Zm0 0"/></clipPath><clipPath id="e"><path d="M55 476h33v10H55Zm0 0"/></clipPath><clipPath id="f"><path d="M124 458h12v20h-12Zm0 0"/></clipPath><clipPath id="g"><path d="M157 465h-16v6h9c-1 4-4 7-9 7a10 10 0 1 1 6-18l5-5a17 17 0 0 0-28 13c0 9 7 17 17 17 8 0 16-6 16-17v-3Zm0 0"/></clipPath><clipPath id="h"><path d="M124 451h33v17h-33Zm0 0"/></clipPath><clipPath id="i"><path d="M157 465h-16v6h9c-1 4-4 7-9 7a10 10 0 1 1 6-18l5-5a17 17 0 0 0-28 13c0 9 7 17 17 17 8 0 16-6 16-17v-3Zm0 0"/></clipPath><clipPath id="j"><path d="M124 451h33v34h-33Zm0 0"/></clipPath><clipPath id="k"><path d="M157 465h-16v6h9c-1 4-4 7-9 7a10 10 0 1 1 6-18l5-5a17 17 0 0 0-28 13c0 9 7 17 17 17 8 0 16-6 16-17v-3Zm0 0"/></clipPath><clipPath id="l"><path d="M132 458h25v27h-25Zm0 0"/></clipPath><clipPath id="m"><path d="M157 465h-16v6h9c-1 4-4 7-9 7a10 10 0 1 1 6-18l5-5a17 17 0 0 0-28 13c0 9 7 17 17 17 8 0 16-6 16-17v-3Zm0 0"/></clipPath></defs><g clip-path="url(#a)" fill="#FFF"><path d="M1 0h958v539H1Zm0 0"/><path d="M1 0h958v539H1Zm0 0"/><path d="M1 0h958v539H1Zm0 0"/></g><path stroke-linecap="round" transform="matrix(0 6.00943 -5.9889 0 254 190)" fill="none" d="M1 0h13" stroke="#545454"/><path stroke-linecap="round" transform="matrix(0 6.00943 -5.9889 0 831 190)" fill="none" d="M1 0h13" stroke="#545454"/><path stroke-linecap="round" transform="matrix(0 6.00943 -5.9889 0 324 190)" fill="none" d="M1 0h13" stroke="#545454"/><path stroke-linecap="round" transform="matrix(0 6.00943 -5.9889 0 397 190)" fill="none" d="M1 0h13" stroke="#545454"/><path stroke-linecap="round" transform="matrix(0 6.00943 -5.9889 0 471 190)" fill="none" d="M1 0h13" stroke="#545454"/><path stroke-linecap="round" transform="matrix(0 6.00943 -5.9889 0 545 190)" fill="none" d="M1 0h13" stroke="#545454"/><path stroke-linecap="round" transform="matrix(0 6.00943 -5.9889 0 615 190)" fill="none" d="M1 0h13" stroke="#545454"/><path stroke-linecap="round" transform="matrix(0 6.00943 -5.9889 0 690 190)" fill="none" d="M1 0h13" stroke="#545454"/><path stroke-linecap="round" transform="matrix(0 6.00943 -5.9889 0 761 190)" fill="none" d="M1 0h13" stroke="#545454"/><path stroke-linecap="round" transform="matrix(6.73534 0 0 6.73752 252 192)" fill="none" d="M1 0h95" stroke="#545454"/><path stroke-linecap="round" transform="matrix(5.98696 0 0 5.9889 255 277)" fill="none" d="M1 0h107" stroke="#545454"/><path d="m190 233 5-8h4l-7 11 7 11h-3l-6-8-6 8h-3l7-11-7-11h3ZM216 224h-3v26h3v2h-6v-30h6ZM224 222h6v30h-6v-2h3v-26h-3Zm0 0"/><path d="M292 239h2v4h-2v4h-5v-4h-9v-3l9-15h5Zm-10 0h5v-8Zm0 0" fill="#059669"/><path d="M353 239h-8v-2h8ZM370 226l-9 21h-3l9-20h-12v-2h15Zm0 0"/><path d="M434 247h-5v-17l-5 2v-4l9-3h1Zm0 0" fill="#059669"/><path d="M510 225v2h-1l-5 2-2 6c1-2 2-2 5-2 2 0 3 0 4 2l2 5-2 6-5 2c-2 0-4-1-5-3-2-1-2-4-2-6v-1l2-10c2-2 5-3 8-3Zm-4 10-3 1-1 2v1l1 5 3 1 3-1 1-4-1-4-3-1Zm0 0"/><path d="M575 234h3l2-1 1-2-1-2-2-1-2 1-1 2h-4v-4l3-2 4-1 6 2 2 5-1 3-3 2 3 2 1 3-2 5-6 2-6-2-2-5h5l1 2 2 1 3-1v-2c0-2-1-3-3-3h-3ZM657 247h-15v-3l7-7 2-3 1-3-1-2-2-1-2 1-1 3h-5l1-4 3-3 4-1 6 2 2 5-1 3-3 4-5 6h9Zm0 0" fill="#059669"/><path d="m731 231-1 3-2 2 2 2 1 3c0 2 0 4-2 5l-5 2-5-2-2-5 1-3 3-2-3-2v-3l1-5 5-2 5 2 2 5Zm-2 10-2-3-3-1-3 1-1 3 1 3 3 1 3-1c1 0 2-1 2-3Zm-5-14-3 1-1 3 1 3 3 1 3-1 1-3-1-3-3-1ZM787 239h-7v-2h7ZM802 240h3v2h-3v5h-3v-5h-10v-2l10-15h3Zm-10 0h7v-11Zm0 0"/><path stroke-linecap="round" transform="matrix(0 6.00784 -6.09607 0 902 190)" fill="none" d="M1 0h13" stroke="#545454"/><path d="M865 247h-3v-19l-6 2v-2l8-3h1ZM883 247h-3v-19l-6 2v-2l8-3h1ZM327 354h-3v-20l-6 2v-2l9-3ZM336 358l-2-1 2-4v-3h2v6l-2 2ZM365 354h-15v-3l8-8 2-3 1-3-1-3-3-1-4 1-1 4h-3l2-6 6-1 5 1 2 5c0 2-2 4-5 8l-6 6h12ZM368 358l-2-1 2-4v-3h3v2l-1 4-2 2ZM386 341h2l3-1 2-3c0-3-2-4-4-4l-3 1-2 3h-2c0-2 0-4 2-5l5-1 5 1 1 5-1 3-2 2 3 2 1 3-2 5-5 2-6-2-2-4h3l1 2 4 1 3-1 1-3-1-3-4-1h-2ZM400 358l-2-1 2-4v-3h3v2l-1 4-2 2ZM425 354l-1-2-5 2-4-2-1-3c0-2 0-3 2-4l5-2h3v-1l-1-2-2-1h-3l-1 2h-3l1-2 2-2 4-1 4 2 2 4v8l1 3v1Zm-5-3h2l2-2v-4h-2c-4 0-5 1-5 3l1 3h2ZM434 337v2c2-2 3-3 5-3 4 0 6 2 6 6v12h-3v-12l-1-2-2-1-3 1-2 2v12h-2v-17ZM449 345l1-6c2-2 3-3 5-3l5 2v-8h3v24h-3v-2l-5 2c-2 0-3-1-5-3l-1-6Zm2 0 2 5 3 1c2 0 3 0 4-2v-8l-4-2-3 1-2 5ZM487 346h3v2h-3v6h-3v-6h-10v-1l10-16h3Zm-10 0h7v-11ZM515 345c0 3 0 5-2 6-1 2-2 3-4 3l-5-2v8h-3v-23h3v2c1-2 3-3 5-3s3 1 4 3c2 1 2 3 2 6Zm-3 0-1-5-3-1-4 2v8c1 2 2 2 4 2l3-1 1-5ZM527 339h-1c-2 0-4 1-4 3v12h-3v-17h3v2c1-2 2-3 4-3l1 1ZM537 354l-6-2-2-6v-1l1-4 3-4 3-1c3 0 4 1 5 3 2 1 2 3 2 6v1h-11l1 4 4 1h2l2-2 2 2c-1 2-3 3-6 3Zm-1-15-3 1-1 4h8v-1l-1-3-3-1ZM556 349v-2l-4-1-3-1-2-2-1-2 2-3 5-2 4 2c2 1 2 2 2 4h-3l-1-2-2-1h-3l-1 2 1 2 3 1 4 1 2 2v2l-1 3-5 2-4-1-2-2-1-3h3l1 3h5l1-2ZM570 354l-6-2-2-6v-1l1-4 3-4 4-1c2 0 4 1 5 3l2 6v1h-12l2 4 3 1h3l2-2 1 2c-1 2-3 3-6 3Zm0-15-3 1-2 4h9v-1l-1-3-3-1ZM583 337v2c1-2 3-3 5-3 3 0 5 2 5 6v12h-3v-14l-3-1-2 1-2 2v12h-3v-17ZM602 333v4h3v2h-3v12h3v3h-2l-3-1-1-4v-10h-3v-2h3v-4ZM619 354h-3v-17h3Zm-3-22v-1h3v2l-1 1-2-1v-1ZM626 337l1 2c1-2 2-3 5-3s5 2 5 6v12h-3v-12l-1-2-2-1-3 1-1 2v12h-3v-17ZM653 333v4h3v2h-3v10l1 2h2v3h-2l-3-1-1-4v-10h-3v-2h3v-4ZM663 339c1-2 2-3 5-3s5 2 5 6v12h-3v-12l-1-2-2-1-3 1-1 2v12h-3v-24h3ZM684 354l-5-2c-2-2-2-4-2-6v-5l3-4 4-1c2 0 4 1 5 3l2 6v1h-12l2 4 3 1h3l2-2 2 2c-2 2-4 3-7 3Zm0-15-3 1-2 4h9v-1l-1-3-3-1ZM712 354v-2l-5 2-4-2-1-3c0-2 0-3 2-4l5-2h3v-1l-1-2-3-1h-2l-1 2h-3l1-2 2-2 4-1 4 2 2 4v8l1 3v1Zm-4-3h2l2-2v-4h-2c-4 0-6 1-6 3l1 3h3ZM728 339h-2c-2 0-3 1-4 3v12h-3v-17h3v2l4-3 2 1ZM738 339h-1c-2 0-3 1-4 3v12h-3v-17h3v2c1-2 2-3 4-3l1 1ZM751 354v-2l-5 2-4-2-1-3c0-2 0-3 2-4l5-2h3v-1l-1-2-3-1h-2l-1 2h-3l1-2 2-2 4-1 4 2 2 4v12Zm-4-3h2l2-2v-4h-2c-4 0-6 1-6 3l1 3h3ZM764 349l4-12h3l-7 19c-1 3-3 4-5 4h-1v-2l3-1 1-2 1-2-6-16h3ZM774 352v-1l1-1 2 1v2l-2 1-1-1v-1ZM361 388l-6-3-1-4c0-2 0-3 2-5l5-1 5 1 2 2 1 4h-3l-1-4-4-1-3 1-1 3 1 2 4 2 4 2 3 2 1 3c0 2-1 3-3 4l-5 2-5-1-3-2-1-4h3l2 3 4 2 3-1 2-3-2-3-4-1ZM372 389l1-4 3-3 4-1c2 0 4 0 5 2 2 1 2 4 2 6v5a7 7 0 0 1-7 4l-6-2-2-7Zm3 0 1 5 4 2 3-2 2-5-2-4c-1-2-2-2-3-2-2 0-3 0-4 2l-1 4ZM400 398v-15h-2v-2h2v-2l2-4 4-2 2 1v2h-2l-2 1-1 2v2h4v2h-4v15ZM413 398h-3v-17h3Zm-3-22 1-1h2l1 1-1 2h-2l-1-2ZM426 383h-1c-2 0-4 1-4 3v12h-3v-17h3v2c1-2 2-2 4-2h1ZM438 393v-2l-3-1-4-1-2-1v-3l1-3 5-1 4 1c2 1 2 2 2 4h-3l-1-2-2-1-3 1-1 1 1 2 3 1 4 1 2 2v2l-1 4-5 1-4-1-2-2-1-2h3l1 2 3 1 2-1 1-2ZM449 377v4h3v2h-3v12l2 1 1-1v3h-2l-3-1-1-3v-11h-3v-2h3v-4ZM466 381v2c1-2 3-2 5-2 3 0 4 0 5 2l2-2h3c4 0 6 1 6 5v12h-3v-11l-1-3-2-1-3 1-1 2v12h-3v-11c0-3-1-4-4-4l-4 2v13h-3v-17ZM495 398h-3v-17h3Zm-4-22 1-1h2l1 1-1 2h-2l-1-2ZM509 393l-1-2-3-1-3-1-2-1-1-3 2-3 4-1 5 1 2 4h-3l-1-2-3-1-2 1-1 1 1 2 3 1 3 1 2 2 1 2-2 4-5 1-3-1-3-2-1-2h3l2 2 2 1 3-1 1-2ZM525 393v-2l-3-1-4-1-2-1v-3l1-3 5-1 4 1c2 1 2 2 2 4h-3l-1-2-2-1-3 1-1 1 1 2 3 1 4 1 2 2v2l-1 4-5 1-4-1-2-2-1-2h3l1 2 3 1 2-1 1-2ZM535 398h-3v-17h3Zm-3-22 1-1h2l1 1-1 2h-2l-1-2ZM543 381v2c1-2 3-2 5-2 3 0 5 2 5 6v11h-3v-11l-1-3-2-1-3 1-1 2v12h-3v-17ZM557 389c0-3 0-5 2-6 1-2 2-2 4-2 3 0 4 0 5 2v-2h3v16l-2 5c-1 2-3 2-5 2h-4l-2-3 1-1 5 2 3-1 1-4v-1l-5 2-4-2c-2-2-2-4-2-7Zm3 0 1 5 3 2c2 0 3-1 4-3v-8l-4-2-3 2-1 4ZM598 389l-2 7-5 2-5-2v8h-3v-23h3v2c1-2 3-2 5-2s4 0 5 2l2 6Zm-3 0-2-4c0-1-1-2-3-2l-4 2v8c1 2 2 3 4 3s3-1 3-2l2-5ZM600 389l1-4 3-3 4-1c2 0 4 0 6 2l2 6-1 5a7 7 0 0 1-7 4l-5-2c-2-2-3-4-3-7Zm3 0 2 5 3 2 4-2 1-5-1-4c-1-2-2-2-4-2-1 0-2 0-3 2l-2 4ZM629 393l-1-2-3-1-3-1-2-1-1-3 2-3 5-1 4 1 2 4h-3l-1-2-2-1-3 1-1 1 1 2 3 1 4 1 1 2 1 2c0 2 0 3-2 4l-4 1-4-1-2-2-1-2h3l1 2 3 1 2-1 1-2ZM639 398h-3v-17h3Zm-3-22v-1h3v3h-3v-2ZM648 377v4h3v2h-3v12l1 1 2-1v3h-2l-3-1-1-3v-11h-3v-2h3v-4ZM657 398h-3v-17h3Zm-3-22 1-1h2l1 1-1 2h-2l-1-2ZM667 394l5-13h3l-7 17h-2l-6-17h3ZM684 398l-5-2c-2-2-2-4-2-6v-1l1-4c0-2 1-3 2-3l4-1c2 0 4 0 5 2l2 6v1h-12l2 4 3 2 3-1 2-2 2 2c-2 2-4 3-7 3Zm0-15-3 1-1 4h8v-1l-1-3-3-1ZM715 385h-13v-3h13Zm0 6h-13v-2h13Zm0 0"/><path d="m728 387 1-12h13v4h-9l-1 5 3-1c3 0 4 0 6 2l1 5-1 4c0 2-1 2-2 3l-4 1-4-1-3-2-1-4h4l1 3h3l2-1 1-3-1-3-3-1-2 1h-1Zm0 0" fill="#E84535"/><path fill="#33363A" d="M83 472v-1l-2-4v-7c0-3 1-6-2-8l-6-2h-1c-4 0-9 2-10 7l1 1h5c1-2 2-3 4-3l2 1 1 3v1h-3l-5 2c-3 1-5 3-5 7v3c1 3 3 4 6 4h4l4-3 3 3h1l3-3v-1Zm-11-8h3v1l-1 4-2 2-1 1c-2 0-3-2-3-4s2-4 4-4Zm0 0"/><g clip-path="url(#b)"><path stroke-linecap="round" fill="none" stroke-linejoin="round" d="M83 472v-1l-2-4v-7c0-3 1-6-2-8l-6-2h-1c-4 0-9 2-10 7l1 1h5c1-2 2-3 4-3h0l2 1 1 3v1h-3l-5 2c-3 1-5 3-5 7v3c1 3 3 4 6 4h4l4-3 3 3h1l3-3v-1Zm-11-8h3v1l-1 4-2 2-1 1c-2 0-3-2-3-4s2-4 4-4Zm0 0" stroke="#33363A" stroke-width=".87201" stroke-miterlimit="10"/></g><path fill="#FFB900" d="M73 482h-1l-10-2h-4v-3h-3l1 1c4 4 9 8 16 8 4 0 9-2 13-4l1-1 1-1h-3l-11 2Zm0 0"/><path fill="#FFB900" d="M87 480h-3l-12 4h-1l-9-2-3-2-2-1c4 4 9 7 15 7 4 0 9-2 13-4l1-1 1-1Zm0 0"/><g clip-path="url(#c)"><path fill="#FFB900" d="M87 478h1v2l-1 2v1h2l2-6v-1h-1l-2-1h-1v3Zm0 0"/></g><path fill="#FFB900" d="M86 479h-2v1h3l-1-1ZM62 480l-4-3v3ZM86 475v1h-1l-1 1h-1l1 1h3v-3h-1Zm0 0"/><g clip-path="url(#d)"><path stroke-linecap="round" fill="none" stroke-linejoin="round" d="M91 477v-1h0-1l-2-1a10 10 0 0 0-2 0h0v1h0-1 0l-1 1h-1l1 1s0 0 0 0 0 0 0 0h3s0 0 0 0h1a1 1 0 0 1 0 0s0 0 0 0v2l-1 2s0 0 0 0a1 1 0 0 0 1 1h1l2-6Zm0 0" stroke="#33363A" stroke-width=".87201" stroke-miterlimit="10"/></g><g clip-path="url(#e)"><path stroke-linecap="round" fill="none" stroke-linejoin="round" d="M86 479h-1s0 0 0 0h-1v1h0s0 0 0 0l-11 2h-1l-10-2-4-3h-3s0 0 0 0l1 1c4 4 9 8 16 8 0 0 0 0 0 0 4 0 9-2 13-4h0l1-1 1-1s0 0 0 0l-1-1Zm0 0" stroke="#33363A" stroke-width=".87201" stroke-miterlimit="10"/></g><g clip-path="url(#f)"><g clip-path="url(#g)"><path fill="#FBBC05" d="M122 478v-20l13 10Zm0 0"/></g></g><g clip-path="url(#h)"><g clip-path="url(#i)"><path fill="#EA4335" d="m122 458 13 10 6-5 18-3v-10h-37Zm0 0"/></g></g><g clip-path="url(#j)"><g clip-path="url(#k)"><path fill="#34A853" d="m122 478 23-18 6 1 8-11v36h-37Zm0 0"/></g></g><g clip-path="url(#l)"><g clip-path="url(#m)"><path fill="#4285F4" d="m159 486-24-18-3-2 27-8Zm0 0"/></g></g><path fill="#FDE0E1" d="M114 54a59 59 0 1 0 0 118 59 59 0 0 0 0-118"/><path d="M104 124h-3v-7h-8v7h-3v-17h3v8h8v-8h3ZM115 124v-1l-4 2-3-1-1-3 1-3 5-1h2v-1l-1-2-2-1-2 1-1 1h-2l1-2 2-1h2l4 1 1 3v8Zm-4-1 2-1 2-1v-3h-2c-3 0-4 1-4 3l1 1 1 1ZM126 114h-1l-3 1v9h-2v-12h2v1a3 3 0 0 1 4-1ZM128 118l1-5 4-1 3 1v-7h2v18h-2v-1l-3 2-4-2-1-5Zm2 0 1 4 2 1c2 0 3-1 3-2v-6c0-1-1-2-3-2l-2 2-1 3Zm0 0"/></svg>